<?xml version="1.0" encoding="UTF-8"?>
<svg width="104px" height="2083px" viewBox="0 0 104 2083" version="1.1" xmlns="http://www.w3.org/2000/svg" xmlns:xlink="http://www.w3.org/1999/xlink">
    <title>mb-home-sprite-web</title>
    <defs>
        <circle id="path-1" cx="24" cy="24" r="24"></circle>
        <filter x="-31.2%" y="-25.0%" width="162.5%" height="162.5%" filterUnits="objectBoundingBox" id="filter-2">
            <feOffset dx="0" dy="3" in="SourceAlpha" result="shadowOffsetOuter1"></feOffset>
            <feGaussianBlur stdDeviation="4.5" in="shadowOffsetOuter1" result="shadowBlurOuter1"></feGaussianBlur>
            <feComposite in="shadowBlurOuter1" in2="SourceAlpha" operator="out" result="shadowBlurOuter1"></feComposite>
            <feColorMatrix values="0 0 0 0 0.2   0 0 0 0 0.2   0 0 0 0 0.2  0 0 0 0.2 0" type="matrix" in="shadowBlurOuter1"></feColorMatrix>
        </filter>
    </defs>
    <g id="mb-home-sprite-web" stroke="none" stroke-width="1" fill="none" fill-rule="evenodd">
        <g id="Group" opacity="0.400000006" transform="translate(52.483465, 64.989796) rotate(90.000000) translate(-52.483465, -64.989796) translate(27.993669, 40.091837)" fill="#FFC72C" fill-rule="nonzero">
            <path d="M35.8276644,33.4693878 C33.4403628,33.4693878 31.1800454,34.4615385 29.6371882,36.1946625 C29.4022676,36.4583987 29.4276644,36.8540031 29.6943311,37.0800628 C29.9546485,37.3124019 30.3546485,37.2872841 30.5895692,37.0235479 C31.8911565,35.5604396 33.8022676,34.7252747 35.8276644,34.7252747 C39.6816327,34.7252747 42.8117914,37.8210361 42.8117914,41.6326531 C42.8117914,45.44427 39.6816327,48.5400314 35.8276644,48.5400314 C32.6594104,48.5400314 29.8530612,46.4238619 29.0086168,43.5164835 L32.0181406,43.5164835 L32.0181406,42.2605965 L26.9387755,42.2605965 L26.9387755,47.2841444 L28.2086168,47.2841444 L28.2086168,44.9858713 C29.5356009,47.8304553 32.5133787,49.7959184 35.8276644,49.7959184 C40.3800454,49.7959184 44.0816327,46.1350078 44.0816327,41.6326531 C44.0816327,37.1302983 40.3800454,33.4693878 35.8276644,33.4693878 Z" id="Path"></path>
            <path d="M23.6734694,21.2408163 C22.4979592,21.5428571 21.5755102,22.4816327 21.3061224,23.6734694 L15.5102041,23.6734694 C15.0612245,23.6734694 14.6938776,24.0408163 14.6938776,24.4897959 C14.6938776,24.9387755 15.0612245,25.3061224 15.5102041,25.3061224 L21.3714286,25.3061224 C21.7714286,26.6612245 23.0122449,27.6571429 24.4897959,27.6571429 C26.2938776,27.6571429 27.755102,26.1959184 27.755102,24.3918367 C27.755102,22.8734694 26.7102041,21.6081633 25.3061224,21.2408163 L25.3061224,12.9632653 C25.3061224,12.5142857 24.9387755,12.1469388 24.4897959,12.1469388 C24.0408163,12.1469388 23.6734694,12.5142857 23.6734694,12.9632653 L23.6734694,21.2408163 Z M26.122449,24.3918367 C26.122449,25.2897959 25.3877551,26.0244898 24.4897959,26.0244898 C23.5918367,26.0244898 22.8571429,25.2897959 22.8571429,24.3918367 C22.8571429,23.4938776 23.5918367,22.7591837 24.4897959,22.7591837 C25.3877551,22.7591837 26.122449,23.4938776 26.122449,24.3918367 Z" id="Shape"></path>
            <path d="M24.4897959,8.06530612 C24.9387755,8.06530612 25.3061224,7.69795918 25.3061224,7.24897959 L25.3061224,6.43265306 C25.3061224,5.98367347 24.9387755,5.61632653 24.4897959,5.61632653 C24.0408163,5.61632653 23.6734694,5.98367347 23.6734694,6.43265306 L23.6734694,7.24897959 C23.6734694,7.69795918 24.0408163,8.06530612 24.4897959,8.06530612 Z" id="Path"></path>
            <path d="M41.6326531,25.2081633 L42.4489796,25.2081633 C42.8979592,25.2081633 43.2653061,24.8408163 43.2653061,24.3918367 C43.2653061,23.9428571 42.8979592,23.5755102 42.4489796,23.5755102 L41.6326531,23.5755102 C41.1836735,23.5755102 40.8163265,23.9428571 40.8163265,24.3918367 C40.8163265,24.8408163 41.1836735,25.2081633 41.6326531,25.2081633 Z" id="Path"></path>
            <path d="M6.53061224,23.5755102 C6.08163265,23.5755102 5.71428571,23.9428571 5.71428571,24.3918367 C5.71428571,24.8408163 6.08163265,25.2081633 6.53061224,25.2081633 L7.34693878,25.2081633 C7.79591837,25.2081633 8.16326531,24.8408163 8.16326531,24.3918367 C8.16326531,23.9428571 7.79591837,23.5755102 7.34693878,23.5755102 L6.53061224,23.5755102 Z" id="Path"></path>
            <path d="M37.1918367,12.8489796 L37.7714286,12.2693878 C38.0897959,11.9510204 38.0897959,11.4367347 37.7714286,11.1183673 C37.4530612,10.8 36.9387755,10.8 36.6204082,11.1183673 L36.0408163,11.6979592 C35.722449,12.0163265 35.722449,12.5306122 36.0408163,12.8489796 C36.2040816,13.0122449 36.4081633,13.0857143 36.6204082,13.0857143 C36.8326531,13.0857143 37.0285714,13.0040816 37.1918367,12.8489796 Z" id="Path"></path>
            <path d="M11.7877551,35.9346939 L11.2081633,36.5142857 C10.8897959,36.8326531 10.8897959,37.3469388 11.2081633,37.6653061 C11.3714286,37.8285714 11.5755102,37.9020408 11.7877551,37.9020408 C12,37.9020408 12.2040816,37.8204082 12.3673469,37.6653061 L12.9469388,37.0857143 C13.2653061,36.7673469 13.2653061,36.2530612 12.9469388,35.9346939 C12.6285714,35.6163265 12.1061224,35.6163265 11.7877551,35.9346939 Z" id="Path"></path>
            <path d="M12.9469388,11.6897959 L12.3673469,11.1102041 C12.0489796,10.7918367 11.5346939,10.7918367 11.2163265,11.1102041 C10.8979592,11.4285714 10.8979592,11.9428571 11.2163265,12.2612245 L11.7959184,12.8408163 C11.9591837,13.0040816 12.1632653,13.077551 12.3755102,13.077551 C12.5877551,13.077551 12.7918367,12.9959184 12.955102,12.8408163 C13.2653061,12.5306122 13.2653061,12.0081633 12.9469388,11.6897959 Z" id="Path"></path>
            <path d="M24.4897959,0 C10.9877551,0 0,10.9877551 0,24.4897959 C0,35.7795918 7.64081633,45.5510204 18.5795918,48.2612245 C18.644898,48.277551 18.7102041,48.2857143 18.7755102,48.2857143 C19.1428571,48.2857143 19.477551,48.0408163 19.5673469,47.6653061 C19.6734694,47.2244898 19.4122449,46.7836735 18.9714286,46.677551 C8.76734694,44.1469388 1.63265306,35.0204082 1.63265306,24.4897959 C1.63265306,11.8857143 11.8857143,1.63265306 24.4897959,1.63265306 C37.0938776,1.63265306 47.3469388,11.8857143 47.3469388,24.4897959 C47.3469388,27.322449 46.8326531,30.0897959 45.8122449,32.7265306 C45.6489796,33.1428571 45.8612245,33.6163265 46.277551,33.7795918 C46.6938776,33.9428571 47.1673469,33.7306122 47.3306122,33.3142857 C48.4244898,30.4897959 48.9795918,27.5183673 48.9795918,24.4897959 C48.9795918,10.9877551 37.9918367,0 24.4897959,0 Z" id="Path" stroke="#FFC72C"></path>
        </g>
        <g id="Group" opacity="0.400000006" transform="translate(27.881424, 121.000000)" fill="#FFC72C" fill-rule="nonzero">
            <path d="M30.1851852,18 L9.81481481,18 C9.36666667,18 9,18.45 9,19 C9,19.55 9.36666667,20 9.81481481,20 L30.1851852,20 C30.6333333,20 31,19.55 31,19 C31,18.45 30.6333333,18 30.1851852,18 Z" id="Path"></path>
            <path d="M8.83333333,13 L17.1666667,13 C17.625,13 18,12.55 18,12 C18,11.45 17.625,11 17.1666667,11 L8.83333333,11 C8.375,11 8,11.45 8,12 C8,12.55 8.375,13 8.83333333,13 Z" id="Path"></path>
            <path d="M30.1851852,25 L9.81481481,25 C9.36666667,25 9,25.45 9,26 C9,26.55 9.36666667,27 9.81481481,27 L30.1851852,27 C30.6333333,27 31,26.55 31,26 C31,25.45 30.6333333,25 30.1851852,25 Z" id="Path"></path>
            <path d="M23.1578947,31 L8.84210526,31 C8.37894737,31 8,31.45 8,32 C8,32.55 8.37894737,33 8.84210526,33 L23.1578947,33 C23.6210526,33 24,32.55 24,32 C24,31.45 23.6210526,31 23.1578947,31 Z" id="Path"></path>
            <path d="M20.1875,40 C20.634375,40 21,39.55 21,39 C21,38.45 20.634375,38 20.1875,38 L8.8125,38 C8.365625,38 8,38.45 8,39 C8,39.55 8.365625,40 8.8125,40 L20.1875,40 Z" id="Path"></path>
            <path d="M6.65957447,1.66666667 L25.7234043,1.66666667 L25.7234043,1.66666667 L25.7234043,13.3333333 L37.3404255,13.3333333 L37.3404255,28.3333333 L39,28.3333333 L39,12.1583333 L26.8934043,0 L7,0 C3.13400675,0 0,3.13400675 0,7 L0,43 C0,46.8659932 3.13400675,50 7,50 L24.0638298,50 L24.0638298,50 L24.0638298,48.3333333 L6.65957447,48.3333333 C3.89815072,48.3333333 1.65957447,46.0947571 1.65957447,43.3333333 L1.65957447,6.66666667 C1.65957447,3.90524292 3.89815072,1.66666667 6.65957447,1.66666667 Z M27.3829787,2.84166667 L36.1704255,11.6666667 L27.3829787,11.6666667 L27.3829787,2.84166667 Z" id="Shape" stroke="#FFC72C"></path>
            <path d="M48.2712392,31.0991523 L45.8839194,28.7103534 C44.937368,27.7632155 43.2955621,27.7632155 42.3490107,28.7103534 L29.4574837,41.6098676 L27.6816528,48.1308696 L27.2460717,48.5667206 C26.9193858,48.8936089 26.9193858,49.4132775 27.2376951,49.7485475 L27.2293186,49.765311 L27.2460717,49.7569292 C27.4052263,49.9161825 27.6230169,50 27.8324309,50 C28.0502215,50 28.2596355,49.9161825 28.4271667,49.7569292 L28.8627479,49.3210782 L35.3797122,47.5441471 L48.2712392,34.6446328 C48.7403266,34.1752548 49,33.5466235 49,32.8760834 C49,32.2055434 48.7403266,31.5769121 48.2712392,31.0991523 Z M31.3924693,42.0457186 L39.9700675,33.462806 L43.5217293,37.0166683 L34.944131,45.5995809 L31.3924693,42.0457186 Z M30.6302022,43.6633965 L33.3274548,46.3623202 L29.6166384,47.376512 L30.6302022,43.6633965 Z M47.0817676,33.4544242 L44.7028243,35.8348414 L41.1511626,32.2809791 L43.5301058,29.900562 C43.8400386,29.5904372 44.384515,29.5904372 44.6944478,29.900562 L47.0817676,32.2893609 C47.2409222,32.4486142 47.3246878,32.6497762 47.3246878,32.8760834 C47.3246878,33.094009 47.2409222,33.295171 47.0817676,33.4544242 Z" id="Shape" stroke="#FFC72C"></path>
        </g>
        <g id="Group-8" opacity="0.4" transform="translate(50.817379, 230.500000) scale(-1, 1) translate(-50.817379, -230.500000) translate(21.000000, 204.246667)" stroke="#FFC72C" stroke-width="2.49333324">
            <path d="M20.1666659,8.8817842e-16 C21.1994384,8.8817842e-16 22.1344383,0.41861374 22.8112452,1.0954206 C23.488052,1.77222745 23.9066658,2.70722741 23.9066658,3.73999986 L23.9066658,3.73999986 L23.9066658,52.5066668 L3.73999986,52.5066668 C2.70722741,52.5066668 1.77222745,52.088053 1.0954206,51.4112462 C0.41861374,50.7344393 -2.66453526e-15,49.7994394 -2.66453526e-15,48.7666669 L-2.66453526e-15,48.7666669 L-2.66453526e-15,3.73999986 C-2.66453526e-15,2.70722741 0.41861374,1.77222745 1.0954206,1.0954206 C1.77222745,0.41861374 2.70722741,8.8817842e-16 3.73999986,8.8817842e-16 L3.73999986,8.8817842e-16 L20.1666659,8.8817842e-16 Z" id="Rectangle" fill="#FFF4F6" fill-rule="nonzero"></path>
            <polygon id="Star" fill="#FFFFFF" fill-rule="nonzero" stroke-linejoin="round" points="52.1504262 14.3020343 54.3422321 16.9796898 57.5661391 18.23678 57.7654609 21.6913601 59.6347574 24.6033324 57.7654609 27.5153048 57.5661391 30.9698848 54.3422321 32.226975 52.1504262 34.9046306 48.8033315 34.0266729 45.4562368 34.9046306 43.2644309 32.226975 40.0405239 30.9698848 39.8412021 27.5153048 37.9719056 24.6033324 39.8412021 21.6913601 40.0405239 18.23678 43.2644309 16.9796898 45.4562368 14.3020343 48.8033315 15.1799919"></polygon>
            <path d="M24.1999991,16.0547635 L44.7579007,24.992982 C45.4406563,25.2898322 46.0028473,25.7750444 46.3943495,26.3721681 C46.7858516,26.9692918 47.0066649,27.6783272 47.0066649,28.4228238 L47.0066649,28.4228238 L47.0066649,48.7666648 C47.0066649,49.7994373 46.5880512,50.7344372 45.9112443,51.4112441 C45.2344375,52.088051 44.2994375,52.5066647 43.266665,52.5066647 L43.266665,52.5066647 L24.1999991,52.5066647 L24.1999991,16.0547635 Z" id="Rectangle-Copy-5" fill="#FFFCF3" fill-rule="nonzero"></path>
            <rect id="Rectangle-Copy-7" x="6.59999975" y="8.79999968" width="10.7066663" height="6.30666643"></rect>
            <rect id="Rectangle-Copy-7" x="6.59999975" y="21.9999992" width="10.7066663" height="6.30666643"></rect>
            <rect id="Rectangle-Copy-8" x="6.59999975" y="35.1999987" width="10.7066663" height="6.30666643"></rect>
        </g>
        <g id="Group-21" opacity="0.4" transform="translate(21.881424, 290.000000)" fill="#FFC72C" fill-rule="nonzero">
            <path d="M20.1117404,5.92315537 L20.4440152,5.93072379 C20.1565532,6.37843876 19.8957819,6.84273903 19.6630628,7.32119998 C19.5106818,7.65453331 19.3297295,8.09262855 19.253539,8.27358093 C19.1773485,8.45453331 19.1106818,8.64500951 19.0344914,8.84500951 C18.0244397,8.93073037 17.0309916,9.15505737 16.0821104,9.51167617 C10.424205,11.7518194 7.59667983,18.1053952 9.71970801,23.8082792 C11.8427362,29.5111632 18.1366716,32.4690679 23.8821104,30.4640571 C24.9271074,30.0959511 25.9122598,29.5760987 26.8059199,28.9212 C27.9720467,28.0318832 28.9442887,26.9138048 29.6630628,25.6354857 C29.8419561,25.3285136 30.0010116,25.0104026 30.1392533,24.6831047 C31.0685785,22.662794 31.3704785,20.4101559 31.0059199,18.2164381 C30.8432132,17.2302565 30.5518384,16.2696804 30.1392533,15.3592952 C29.0730537,13.0389692 27.2447304,11.1535108 24.9583009,10.0164381 L24.9583009,10.0164381 L24.9583009,9.92119998 C25.3151944,9.21183028 25.7634502,8.55225387 26.2916342,7.95929522 L26.2916342,7.95929522 L26.5583009,7.68310474 C29.4015969,9.19887043 31.6326388,11.6520071 32.8725866,14.6259619 L32.8725866,14.6259619 L43.1392533,14.6259619 C43.1142063,15.4519119 42.9698555,16.2698998 42.7106818,17.0545333 C42.6948088,17.105327 42.6768194,17.1540042 42.6577718,17.2016233 L42.5392533,17.4831047 L33.7678247,17.4831047 C34.2424216,20.0390743 33.9984499,22.6766064 33.0630628,25.1021524 C32.9583009,25.3592952 32.853539,25.6069143 32.7392533,25.8545333 C32.3924879,26.6109753 31.978106,27.3345499 31.501158,28.0164381 C30.9472396,28.7959252 30.3083968,29.5114291 29.5963961,30.1497714 L29.5963961,30.1497714 L29.5963961,53.4450095 C29.5963652,54.3820275 29.9705387,55.2802572 30.6357875,55.9401411 C31.3010363,56.600025 32.2022662,56.9669133 33.1392533,56.9592952 L33.1392533,56.9592952 L52.8344914,56.9592952 C54.7753778,56.9592952 56.3487771,55.3858959 56.3487771,53.4450095 L56.3487771,53.4450095 L56.3487771,20.9307238 C56.3487771,18.9898374 54.7753778,17.4164381 52.8344914,17.4164381 L52.8344914,17.4164381 L48.6440152,17.4164381 C48.8504795,16.5181822 48.9779497,15.6035831 49.0249675,14.6831047 L49.0249675,14.6831047 L49.0249675,14.5592952 L52.8344914,14.5592952 C56.3511594,14.5645401 59.2006751,17.4140557 59.2059199,20.9307238 L59.2059199,20.9307238 L59.2059199,53.4450095 C59.2006751,56.9616776 56.3511594,59.8111932 52.8344914,59.8164381 L52.8344914,59.8164381 L33.1106818,59.8164381 C29.5940138,59.8111932 26.7444981,56.9616776 26.7392533,53.4450095 L26.7392533,53.4450095 L26.7392533,32.2545333 C26.1251785,32.5926751 25.488785,32.888598 24.8344914,33.1402476 C23.2808071,33.7573455 21.6296184,34.0927432 19.9583009,34.1307238 L19.9583009,34.1307238 L20.0363124,34.3744371 C20.198861,34.9479185 20.2248847,35.5527943 20.1106818,36.1402476 C20.0933534,36.256141 20.0580056,36.3686112 20.0059199,36.4735809 L20.0059199,36.4735809 L19.5487771,37.4259619 C19.5034186,37.5327954 19.442435,37.632295 19.3678247,37.7212 C18.9313966,38.2694025 18.3558123,38.6904012 17.701158,38.9402476 L17.701158,38.9402476 L17.5963961,38.9402476 C17.3937622,39.0370425 17.23185,39.2023278 17.1392533,39.4069143 C17.0502649,39.6077556 17.0334418,39.8331846 17.0916342,40.0450095 C17.095427,40.0766423 17.095427,40.1086149 17.0916342,40.1402476 C17.3368638,40.7969828 17.3994007,41.5079292 17.2725866,42.1973905 C17.2479523,42.3114766 17.2128842,42.423057 17.1678247,42.5307238 L17.1678247,42.5307238 L16.701158,43.5402476 C16.6525894,43.650433 16.588442,43.7530688 16.5106818,43.8450095 C16.0746752,44.3914299 15.4986915,44.8094295 14.8440152,45.0545333 L14.8440152,45.0545333 L14.7583009,45.0545333 C14.316218,45.2690855 14.1099484,45.7847594 14.2821104,46.2450095 C14.52734,46.9017447 14.5898769,47.6126911 14.4630628,48.3021524 C14.4413357,48.4200603 14.4061864,48.5350944 14.3583009,48.6450095 L14.3583009,48.6450095 L13.8725866,49.6259619 C13.8272281,49.7327954 13.7662445,49.832295 13.6916342,49.9212 C13.269019,50.5079435 12.6921344,50.9661547 12.0249675,51.2450095 L12.0249675,51.2450095 L11.9297295,51.2450095 C11.6872404,51.3590286 11.5040024,51.5699252 11.4249675,51.8259619 C10.9650561,53.2446112 9.73896986,54.2786598 8.26306279,54.4926286 L8.26306279,54.4926286 L6.24401517,54.768819 C6.07590413,54.7786268 5.90736431,54.7786268 5.73925326,54.768819 C4.46827752,54.7590524 3.28589209,54.1160634 2.58687231,53.0545333 L2.58687231,53.0545333 L0.605919931,49.9973905 C-0.0979328449,48.9195427 -0.195170949,47.5546078 0.348777074,46.3878666 L0.348777074,46.3878666 L8.64401517,28.2926286 C5.62206248,24.1810623 5.07825902,18.7503271 7.22496755,14.1212 C9.5684464,8.96805723 14.7864119,5.73502386 20.4440152,5.93072379 L20.1117404,5.92315537 Z M10.7297295,30.5783428 L2.92972945,47.6164381 C2.80783503,47.9019137 2.83271302,48.2288816 2.99639612,48.4926286 L2.99639612,48.4926286 L4.88211041,51.4831047 C5.08025959,51.765183 5.41536969,51.918168 5.75830088,51.8831047 L5.75830088,51.8831047 L7.75830088,51.6069143 C8.15927564,51.5409665 8.4879471,51.2529174 8.60591993,50.8640571 C8.95767961,49.7365385 9.81253225,48.835953 10.9202056,48.4259619 L10.9202056,48.4259619 L11.0154437,48.4259619 C11.1090857,48.37778 11.1956188,48.3168863 11.2725866,48.2450095 L11.2725866,48.2450095 L11.5487771,47.6259619 C11.5615113,47.4899886 11.5419315,47.3529306 11.4916342,47.2259619 C11.1343016,46.2776474 11.1695449,45.2260391 11.5895676,44.3037767 C12.0095902,43.3815143 12.7797713,42.664616 13.7297295,42.3116762 L13.7297295,42.3116762 L13.8154437,42.3116762 C13.9127689,42.2648376 14.0026303,42.2038603 14.0821104,42.1307238 L14.0821104,42.1307238 L14.3583009,41.5116762 C14.3778929,41.4078303 14.3778929,41.3012364 14.3583009,41.1973905 L14.3583009,41.1973905 L14.3583009,41.1212 C13.9912918,40.1621645 14.0269909,39.0955801 14.4573057,38.1632315 C14.8876204,37.2308828 15.6761042,36.5117376 16.6440152,36.168819 L16.6440152,36.168819 L16.7297295,36.168819 C16.8248774,36.1231653 16.9117758,36.0620146 16.9868723,35.9878666 L16.9868723,35.9878666 L17.2725866,35.368819 C17.2823681,35.2329333 17.2628819,35.0965305 17.2154437,34.968819 C17.0646109,34.5727672 16.980922,34.1543227 16.9678247,33.7307238 C14.6556635,33.2234422 12.5096024,32.1389442 10.7297295,30.5783428 L10.7297295,30.5783428 Z M21.9773485,6.11167617 C25.4592803,1.02696783 31.8486849,-1.19462485 37.7340579,0.633076432 C43.619431,2.46077772 47.6263699,7.91095256 47.6154437,14.0735809 L47.6154437,14.0735809 L47.6154437,14.5497714 C47.5855025,15.5125924 47.4578636,16.4698841 47.2344914,17.4069143 C46.970641,18.5032297 46.5707119,19.562242 46.0440152,20.5592952 C47.5501112,21.7590238 48.2091584,23.7327036 47.7260796,25.5966534 C47.2430009,27.4606032 45.7082722,28.8657235 43.8090419,29.1828957 C41.9098116,29.500068 40.001787,28.669889 38.9392533,27.0640571 C38.4174845,26.2634065 38.1486905,25.3242864 38.1678247,24.368819 C38.1580223,24.2706504 38.1580223,24.1717495 38.1678247,24.0735809 C38.3256641,21.5436969 40.3955121,19.5566428 42.9297295,19.5021524 L42.9297295,19.5021524 L43.0630628,19.5021524 C43.4558775,18.8438533 43.7752502,18.1444272 44.0154437,17.4164381 C44.3223621,16.4938274 44.4924227,15.5312199 44.5202056,14.5592952 C44.5297076,14.4007073 44.5297076,14.2416927 44.5202056,14.0831047 C44.5304613,9.47299349 41.6576314,5.3482215 37.3299392,3.75941326 C33.0022471,2.17060502 28.1429436,3.45670995 25.1678247,6.97834284 C24.5535898,7.67824876 24.0347904,8.45644794 23.6249675,9.29262855 L23.6249675,9.29262855 L23.5678247,9.42596189 C23.0571525,10.542968 22.7353233,11.7369542 22.6154437,12.9592952 C22.7709729,13.0113341 22.9235764,13.0717397 23.0725866,13.1402476 C25.0265419,14.0307979 26.2508873,16.0114793 26.1739244,18.1574285 C26.0969616,20.3033777 24.7338729,22.1912628 22.7211419,22.9395508 C20.7084109,23.6878389 18.4430894,23.148915 16.9829512,21.5744254 C15.5228129,19.9999358 15.1558998,17.7004803 16.053539,15.7497714 C16.7250907,14.3128706 18.0094759,13.2559651 19.5487771,12.8735809 C19.6565261,11.4957926 19.9778233,10.1431315 20.501158,8.86405712 C20.6154437,8.57834284 20.7392533,8.29262855 20.8725866,8.01643808 C21.184808,7.3506297 21.5544605,6.71329792 21.9773485,6.11167617 Z M42.9868723,22.3497714 C41.8717831,22.3497714 40.9678247,23.2537298 40.9678247,24.368819 C40.9678247,25.4839082 41.8717831,26.3878666 42.9868723,26.3878666 C44.1019615,26.3878666 45.0059199,25.4839082 45.0059199,24.368819 C45.0059199,23.2537298 44.1019615,22.3497714 42.9868723,22.3497714 Z M20.8725866,15.5116762 C20.4322624,15.5124629 20.0006409,15.6343713 19.6249675,15.8640571 C18.8436332,16.3238535 18.3834514,17.1805656 18.431521,18.0858752 C18.4795905,18.9911848 19.0279072,19.7943483 19.853539,20.168819 C20.9549742,20.6673052 22.2553588,20.2833394 22.9093686,19.2665212 C23.5633784,18.249703 23.3734565,16.9071832 22.4630628,16.1116762 C22.2889606,15.9596649 22.0931547,15.8344775 21.8821104,15.7402476 C21.5662335,15.5915354 21.2217142,15.513531 20.8725866,15.5116762 Z" id="Combined-Shape" stroke="#FFFCF3" stroke-width="0.5"></path>
            <path d="M37.1128238,51.5993325 L49.2703115,51.5993325 C49.9755105,51.5993325 50.5471873,51.0152142 50.5471873,50.2946679 L50.5471873,42.9802187 C50.9837762,42.9951023 51.3810629,42.7239392 51.5347817,42.3061486 C51.6885005,41.8883579 51.5644361,41.4169327 51.2263765,41.1342571 L43.8707569,35.0342564 C43.4695582,34.7219145 42.9135771,34.7219145 42.5123784,35.0342564 L35.1839263,41.1342571 C34.7512022,41.486581 34.6728063,42.1273978 35.0073371,42.5777158 C35.2013149,42.8183562 35.4900846,42.9582526 35.7951966,42.9593996 L35.7951966,42.9593996 L35.7951966,50.3085473 C35.7986752,50.6594884 35.9403853,50.9941978 36.1883234,51.237085 C36.4362614,51.4799721 36.7695155,51.6105513 37.1128238,51.5993325 L37.1128238,51.5993325 Z M44.115265,49.5174209 L42.281454,49.5174209 L42.281454,44.9233361 C42.268055,44.4017193 42.6496856,43.9573736 43.1576082,43.9031995 C43.4117068,43.8837563 43.6621456,43.9740438 43.8480391,44.1521117 C44.0339325,44.3301796 44.1382538,44.5797178 44.1356407,44.8400597 L44.115265,49.5174209 Z M37.8735158,41.6339159 L43.1983595,37.2063841 L48.5232033,41.6339159 L48.5232033,49.5174209 L46.1528328,49.5174209 L46.1528328,44.8400597 C46.1525306,44.0070901 45.8153922,43.2112667 45.2212151,42.6409528 C44.6270379,42.070639 43.8286343,41.776526 43.0149784,41.8282277 C41.4372974,41.9524802 40.2248866,43.3066549 40.2438863,44.9233361 L40.2438863,49.5174209 L37.8735158,49.5174209 L37.8735158,41.6339159 Z" id="Shape"></path>
        </g>
        <g id="Group" opacity="0.400000006" transform="translate(29.894723, 382.203350)">
            <path d="M22.4719098,4.02973378e-05 C14.1538441,-0.0186426288 7.34637665,6.46119445 7.29467834,15.0774978 C7.28506036,15.1974135 7.30570081,15.3216607 7.31081317,15.4350315 C7.54592047,17.9593855 7.84494744,19.7407001 9.6483053,22.7880428 C11.4939008,25.9067619 14.8875244,30.4892338 21.5760138,39.4313124 C21.993607,39.9816495 22.9502115,39.9816495 23.3678048,39.4313124 C30.0562952,30.4892338 33.4499194,25.9067619 35.2955138,22.7880428 C37.040966,19.8385484 37.3771447,18.0750821 37.6101121,15.6759697 C37.656966,15.4075034 37.642775,15.165981 37.6472413,14.9077394 C37.5078065,6.37622816 30.7352604,-0.0185190328 22.4719098,4.02973378e-05 Z M22.4719098,2.24724015 C29.6385345,2.23113266 35.3609666,7.63718884 35.4009138,15.098436 C35.1674935,17.6657562 35.0726941,18.7581439 33.3631902,21.6468911 C31.7436525,24.3836158 28.4181879,28.9095147 22.4719098,36.8681102 C16.5256317,28.9095147 13.2001671,24.3836158 11.5806295,21.6468911 C9.87112665,18.7581495 9.77632609,17.6657562 9.54290586,15.098436 C9.5828553,7.63718884 15.3052834,2.23117198 22.4719098,2.24724015 L22.4719098,2.24724015 Z M8.87537609,32.0224115 C8.50257834,32.0557506 8.15346766,32.2883349 7.97948002,32.6195147 L0.109651927,47.788054 C-0.253159646,48.4715933 0.336769904,49.4438405 1.11094688,49.4383831 L43.8328733,49.4383831 C44.6070503,49.4439529 45.1969801,48.4715933 44.8341683,47.788054 L36.9643396,32.6195147 C36.7728143,32.2588405 36.3715975,32.0196832 35.9630447,32.0224115 L32.590261,32.0224115 C31.9963183,32.0141776 31.4500447,32.5525484 31.4500447,33.1462001 C31.4500447,33.7398517 31.9963183,34.2781664 32.590261,34.2697956 L35.2779475,34.2697956 L37.6143031,38.7641776 C34.7837188,38.7641776 31.9347216,38.7641776 29.1120778,38.7641776 C28.5233329,38.7917057 28.0126862,39.3520428 28.040284,39.9404697 C28.0678851,40.5288405 28.6287435,41.0390652 29.2174772,41.0113686 L38.7736975,41.0113686 L41.9883817,47.1911439 L23.5961711,47.1911439 L23.5961711,43.8203574 C23.6099239,43.1829416 22.9830312,42.6093461 22.3489435,42.6791776 C21.7964986,42.7398517 21.3356817,43.2650203 21.3476486,43.8203574 L21.3476486,47.1911439 L2.95543789,47.1911439 L6.45118733,40.4495708 L15.726343,40.4495708 C16.3202868,40.4579978 16.8665632,39.919627 16.8665632,39.3259753 C16.8665632,38.7323237 16.3202868,38.1940091 15.726343,38.2023798 L7.62814856,38.2023798 L9.66587216,34.2697956 L12.3535593,34.2697956 C12.9475025,34.2782225 13.4937756,33.7398517 13.4937756,33.1462001 C13.4937756,32.5525484 12.9475025,32.0142338 12.3535593,32.0224115 C11.1991025,32.0224115 10.0213104,32.0224115 8.87537609,32.0224115 L8.87537609,32.0224115 Z" id="Shape" fill="#FFC72C" fill-rule="nonzero"></path>
            <path d="M22.4719098,8.42708771 C25.5897885,8.42708771 28.0932166,10.9290315 28.0932166,14.0450652 C28.0932166,17.1610933 25.5897885,19.6630428 22.4719098,19.6630428 C19.3540317,19.6630428 16.8506042,17.1610933 16.8506042,14.0450652 C16.8506042,10.9290315 19.3540317,8.42708771 22.4719098,8.42708771 Z" id="Path" stroke="#FFC72C" stroke-width="2"></path>
        </g>
        <polygon id="Combined-Shape" fill="#303030" fill-rule="nonzero" points="53.8842343 464 62.881424 473.262347 53.4225349 483 52.0383519 481.575024 59.147424 474.255 41.881424 474.255708 41.881424 472.240487 59.119424 472.24 52.5000512 465.424976"></polygon>
        <polygon id="Combined-Shape-Copy-2" fill="#D8232A" fill-rule="nonzero" points="53.8842343 566 62.881424 575.262347 53.4225349 585 52.0383519 583.575024 59.147424 576.255 41.881424 576.255708 41.881424 574.240487 59.119424 574.24 52.5000512 567.424976"></polygon>
        <polygon id="Combined-Shape-Copy" fill="#303030" fill-rule="nonzero" transform="translate(52.381424, 524.500000) scale(-1, 1) translate(-52.381424, -524.500000) " points="53.8842343 515 62.881424 524.262347 53.4225349 534 52.0383519 532.575024 59.147424 525.255 41.881424 525.255708 41.881424 523.240487 59.119424 523.24 52.5000512 516.424976"></polygon>
        <polygon id="Combined-Shape-Copy-3" fill="#D8232A" fill-rule="nonzero" transform="translate(52.381424, 626.500000) scale(-1, 1) translate(-52.381424, -626.500000) " points="53.8842343 617 62.881424 626.262347 53.4225349 636 52.0383519 634.575024 59.147424 627.255 41.881424 627.255708 41.881424 625.240487 59.119424 625.24 52.5000512 618.424976"></polygon>
        <polygon id="Combined-Shape" fill="#D8232A" fill-rule="nonzero" points="52.7401727 668 57.881424 673.362411 52.4763445 679 51.6853828 678.175014 55.748424 673.937 45.881424 673.937515 45.881424 672.770808 55.731424 672.77 51.949211 668.824986"></polygon>
        <polygon id="Combined-Shape" fill="#FFFFFF" fill-rule="nonzero" points="52.7401727 711 57.881424 716.362411 52.4763445 722 51.6853828 721.175014 55.748424 716.937 45.881424 716.937515 45.881424 715.770808 55.731424 715.77 51.949211 711.824986"></polygon>
        <path d="M55.2147573,891 C56.1352319,891 56.881424,891.746192 56.881424,892.666667 L56.881424,899.333333 C56.881424,900.205362 56.2117114,900.920971 55.3585637,900.993882 L55.2147573,901 L48.5480907,901 C47.6276161,901 46.881424,900.253808 46.881424,899.333333 L46.881424,892.666667 C46.881424,891.746192 47.6276161,891 48.5480907,891 L55.2147573,891 Z M51.4361886,895.429219 C51.1180685,895.096627 50.5905615,895.084894 50.2579687,895.403014 L50.2579687,895.403014 L47.7147573,897.835558 L47.7147573,899.333333 C47.7147573,899.793571 48.0878534,900.166667 48.5480907,900.166667 L48.5480907,900.166667 L55.2147573,900.166667 L51.4857554,895.48597 L51.4361886,895.429219 Z M55.2147573,892 L48.5480907,892 C48.2133726,892 47.9362687,892.246675 47.8886524,892.568152 L47.881424,892.666667 L47.881424,896.522 L49.6819613,894.800802 C50.3080184,894.201987 51.2793906,894.187549 51.921941,894.742492 L52.0384012,894.853212 L52.1019594,894.923679 L55.827263,899.596978 C55.8496583,899.545018 55.8656354,899.489642 55.8741956,899.431848 L55.881424,899.333333 L55.881424,892.666667 C55.881424,892.298477 55.5829472,892 55.2147573,892 Z" id="Combined-Shape" fill="#FFFFFF" fill-rule="nonzero"></path>
        <path d="M52.0021816,845 C55.9282544,845 59.1228033,848.140404 59.1228033,852.000067 C59.1228033,855.859596 55.9282544,859 52.0021816,859 C48.0759725,859 44.881424,855.859596 44.881424,852.000067 C44.881424,848.140404 48.0759725,845 52.0021816,845 Z M54.3803386,848.5 L49.4214658,848.5 C49.1056256,848.5 48.8492936,848.762246 48.8492936,849.085373 C48.8492936,849.4085 49.1056256,849.670746 49.4214658,849.670746 L51.1379826,849.670746 C51.740747,849.670746 52.2457282,850.084337 52.4105629,850.646272 L49.4214658,850.646272 C49.1056256,850.646272 48.8492936,850.908518 48.8492936,851.231644 C48.8492936,851.554771 49.1056256,851.817017 49.4214658,851.817017 L52.230502,851.817017 C51.9886977,852.16987 51.589602,852.40239 51.1379826,852.40239 L49.4214658,852.40239 C49.1705817,852.40239 48.9484738,852.570313 48.8745775,852.815267 C48.8005416,853.060363 48.8913404,853.32661 49.0987808,853.471667 L53.2948039,856.398531 C53.3938446,856.467273 53.5053176,856.5 53.6166508,856.5 C53.799785,856.5 53.9798459,856.411108 54.0904811,856.244757 C54.2674686,855.97708 54.2011159,855.612651 53.9401738,855.430723 L51.2715268,853.569277 C52.3129195,853.513112 53.1757876,852.791114 53.4861798,851.817017 L54.3803386,851.817017 C54.6961789,851.817017 54.952511,851.554771 54.952511,851.231644 C54.952511,850.908518 54.6961789,850.646272 54.3803386,850.646272 L53.5785151,850.646272 C53.5243152,850.29199 53.4030638,849.961002 53.2207678,849.670746 L54.3803386,849.670746 C54.6961789,849.670746 54.952511,849.4085 54.952511,849.085373 C54.952511,848.762246 54.6961789,848.5 54.3803386,848.5 Z" id="budget-icon" fill="#D8232A" fill-rule="nonzero"></path>
        <polygon id="Path-Copy-7" fill="#D8232A" fill-rule="nonzero" transform="translate(51.881424, 936.026787) scale(-1, 1) rotate(-180.000000) translate(-51.881424, -936.026787) " points="51.881424 933.000001 51.3317457 933.510457 46.881424 937.651604 47.9807806 939.053572 51.881424 935.422869 55.7820674 939.053572 56.881424 937.651604 52.4311023 933.510457"></polygon>
        <polygon id="Path-Copy-6" fill="#FFFFFF" fill-rule="nonzero" transform="translate(51.967631, 974.000000) scale(-1, 1) rotate(-180.000000) translate(-51.967631, -974.000000) " points="51.9676309 971 51.4084754 971.505939 46.881424 975.610439 47.999735 977 51.9676309 973.401427 55.9355268 977 57.0538378 975.610439 52.5267864 971.505939"></polygon>
        <path d="M51.4762516,754 C54.5661894,754 57.0710792,756.551893 57.0710792,759.699814 C57.0710792,761.695057 55.3853327,764.402916 52.0138397,767.823392 L52.0138397,767.823392 L52.0061415,767.83109 C51.7092459,768.123734 51.2313296,768.120287 50.9386855,767.823392 L50.9386855,767.823392 L50.627535,767.50482 C47.463461,764.234376 45.881424,761.632708 45.881424,759.699814 C45.881424,756.551893 48.3863136,754 51.4762516,754 Z M51.4759867,756.659927 C49.8280198,756.659927 48.4920786,758.020937 48.4920786,759.699828 C48.4920786,761.378719 49.8280198,762.739729 51.4759867,762.739729 C53.1239536,762.739729 54.4598949,761.378719 54.4598949,759.699828 C54.4598949,758.020937 53.1239536,756.659927 51.4759867,756.659927 Z" id="Combined-Shape" fill="#D8232A" fill-rule="nonzero"></path>
        <path d="M45.3849186,807.440413 L46.5177815,807.440413 L46.5177815,811.971864 C46.5177815,812.240679 46.7521669,812.471092 47.0256166,812.471092 L50.4242052,812.471092 C50.4632694,812.471092 50.5413979,812.471092 50.5804621,812.43269 L50.5804621,808.246858 L53.3930872,808.246858 L53.3930872,812.471092 C53.4321514,812.471092 53.4712156,812.471092 53.4712156,812.471092 L56.7135473,812.471092 C56.986997,812.471092 57.2213824,812.240679 57.2213824,811.971864 L57.2213824,807.440413 L58.6276949,807.440413 C59.0574015,807.440413 59.2917869,806.902783 58.979273,806.595566 L52.4946097,800.144008 C52.2992885,799.951997 51.9867746,799.951997 51.7914535,800.144008 L45.0333405,806.595566 C44.7208266,806.864381 44.9161478,807.440413 45.3849186,807.440413 Z" id="Path" fill="#D8232A" fill-rule="nonzero"></path>
        <path d="M45.756424,1028.49372 L45.756424,1032.6875 C45.756424,1032.92912 45.5605486,1033.125 45.318924,1033.125 C45.0772994,1033.125 44.881424,1032.92912 44.881424,1032.6875 L44.881424,1027.4375 C44.881424,1027.19588 45.0772994,1027 45.318924,1027 L50.568924,1027 C50.8105486,1027 51.006424,1027.19588 51.006424,1027.4375 C51.006424,1027.67912 50.8105486,1027.875 50.568924,1027.875 L46.3751424,1027.875 L54.3782832,1035.87814 C54.5491376,1036.049 54.5491376,1036.326 54.3782832,1036.49686 C54.2074288,1036.66771 53.9304192,1036.66771 53.7595648,1036.49686 L45.756424,1028.49372 Z M58.006424,1030.5 L51.443924,1030.5 C51.2022994,1030.5 51.006424,1030.30412 51.006424,1030.0625 C51.006424,1029.82088 51.2022994,1029.625 51.443924,1029.625 L58.443924,1029.625 C58.6855486,1029.625 58.881424,1029.82088 58.881424,1030.0625 L58.881424,1040.5625 C58.881424,1040.80412 58.6855486,1041 58.443924,1041 L47.943924,1041 C47.7022994,1041 47.506424,1040.80412 47.506424,1040.5625 L47.506424,1033.5625 C47.506424,1033.32088 47.7022994,1033.125 47.943924,1033.125 C48.1855486,1033.125 48.381424,1033.32088 48.381424,1033.5625 L48.381424,1040.125 L58.006424,1040.125 L58.006424,1030.5 Z" id="Shape" fill="#303030" fill-rule="nonzero" transform="translate(51.881424, 1034.000000) scale(-1, 1) translate(-51.881424, -1034.000000) "></path>
        <polygon id="Path-Copy-5" fill="#909090" fill-rule="nonzero" transform="translate(51.967631, 986.000000) scale(-1, 1) rotate(-180.000000) translate(-51.967631, -986.000000) " points="51.9676309 983 51.4084754 983.505939 46.881424 987.610439 47.999735 989 51.9676309 985.401427 55.9355268 989 57.0538378 987.610439 52.5267864 983.505939"></polygon>
        <path d="M52.2159828,1077.5 L48.8141596,1079.20687 C48.5628558,1079.33296 48.2569163,1079.23145 48.1308246,1078.98015 C48.0814754,1078.8818 48.0653226,1078.7701 48.0847863,1078.66179 L48.728193,1075.08156 L48.728193,1075.08156 L46.0249031,1072.5667 C45.8190458,1072.37519 45.8074136,1072.05306 45.998922,1071.8472 C46.0787254,1071.76142 46.1856752,1071.70579 46.3017281,1071.6897 L50.0604101,1071.16844 L50.0604101,1071.16844 L51.7637764,1067.87448 C51.8929247,1067.62473 52.2000799,1067.52696 52.4498266,1067.65611 C52.5434672,1067.70454 52.6197661,1067.78083 52.6681892,1067.87448 L54.3715555,1071.16844 L54.3715555,1071.16844 L58.1302374,1071.6897 C58.4087352,1071.72832 58.6031928,1071.98539 58.5645707,1072.26389 C58.5484764,1072.37995 58.4928452,1072.4869 58.4070623,1072.5667 L55.7037727,1075.08156 L55.7037727,1075.08156 L56.3471794,1078.66179 C56.3969107,1078.93852 56.212892,1079.20317 55.9361619,1079.2529 C55.8278566,1079.27237 55.7161602,1079.25622 55.617806,1079.20687 L52.2159828,1077.5 L52.2159828,1077.5 Z" id="Star" fill="#FEC107" fill-rule="nonzero"></path>
        <g id="Group-5" transform="translate(40.522649, 1113.899999)" fill-rule="nonzero">
            <g id="Group" transform="translate(0.000000, 0.000000)">
                <path d="M10.558774,12 C7.25018444,12 4.55877405,9.30858963 4.55877405,6 C4.55877405,2.69141039 7.25018444,0 10.558774,0 C13.8673637,0 16.558774,2.69141039 16.558774,6 C16.558774,9.30858963 13.8673637,12 10.558774,12 Z M10.5587741,1.64793213 C8.15885358,1.64793213 6.20670618,3.60007953 6.20670618,6 C6.20670618,8.39992047 8.15885358,10.3520678 10.5587741,10.3520678 C12.9586945,10.3520678 14.9108419,8.39992047 14.9108419,6 C14.9108419,3.60007953 12.9586945,1.64793213 10.5587741,1.64793213 Z" id="Shape" fill="#FFFFFF"></path>
                <path d="M10.658776,9.10000193 C9.00448118,9.10000193 7.65877598,7.75429673 7.65877598,6.10000193 C7.65877598,4.44570713 9.00448118,3.10000193 10.658776,3.10000193 C12.3130708,3.10000193 13.658776,4.44570713 13.658776,6.10000193 C13.658776,7.75429673 12.3130708,9.10000193 10.658776,9.10000193 Z" id="Shape" fill="#D8232A"></path>
                <path d="M20.7496915,23.4732096 L0.915824066,23.4732096 C0.410176029,23.4732096 0,23.0634756 0,22.5573855 C0,16.4520391 5.06178436,11.0963247 10.8325368,11.0963247 C16.7045072,11.0963247 21.6650742,16.3446331 21.6650742,22.5573855 C21.6655155,23.0634756 21.2553395,23.4732096 20.7496915,23.4732096 Z M1.87629014,21.6420035 L19.7887834,21.6420035 C19.3268934,16.9042051 15.3400531,12.9279729 10.8325368,12.9279729 C6.32502045,12.9279729 2.33862217,16.9042051 1.87629014,21.6420035 Z" id="Shape" fill="#FFFFFF"></path>
            </g>
        </g>
        <g id="Group-5" transform="translate(41.522649, 1170.187409)">
            <circle id="Oval" cx="11.158776" cy="6.31259199" r="5.5"></circle>
            <path d="M10.9085608,13.337793 C7.23112051,13.337793 4.2396643,10.3463368 4.2396643,6.66889646 C4.2396643,2.99145621 7.23112051,5.82867088e-16 10.9085608,5.82867088e-16 C14.586001,5.82867088e-16 17.5774572,2.99145621 17.5774572,6.66889646 C17.5774572,10.3463368 14.586001,13.337793 10.9085608,13.337793 Z M10.9085608,1.83164813 C8.24109058,1.83164813 6.07131243,4.00142628 6.07131243,6.66889646 C6.07131243,9.33636665 8.24109058,11.5061448 10.9085608,11.5061448 C13.576031,11.5061448 15.7458091,9.33636665 15.7458091,6.66889646 C15.7458091,4.00142628 13.576031,1.83164813 10.9085608,1.83164813 Z" id="Shape" fill="#FFFFFF" fill-rule="nonzero"></path>
            <path d="M20.7496915,24.1857997 L0.915824059,24.1857997 C0.410176029,24.1857997 0,23.7760657 0,23.2699757 C0,17.1646292 5.06178435,11.8089149 10.8325368,11.8089149 C16.7045072,11.8089149 21.6650742,17.0572232 21.6650742,23.2699757 C21.6655155,23.7760657 21.2553395,24.1857997 20.7496915,24.1857997 Z M1.87629013,22.3545936 L19.7887834,22.3545936 C19.3268934,17.6167953 15.3400531,13.640563 10.8325368,13.640563 C6.32502044,13.640563 2.33862216,17.6167953 1.87629013,22.3545936 Z" id="Shape" fill="#FFFFFF" fill-rule="nonzero"></path>
            <polygon id="Rectangle" fill="#D8232A" fill-rule="nonzero" points="9.71755249 13.5531548 11.0175526 13.5531548 12.3175527 24.0089042 8.41755245 24.0089042"></polygon>
        </g>
        <g id="Group-5" transform="translate(38.881425, 1227.600001)" fill-rule="nonzero">
            <polygon id="Path-2" fill="#D8232A" points="12.3702863 0.299997926 8.64257526 5.63519722 12.3702863 18.8657165 16.503804 6.246966"></polygon>
            <path d="M25.0461353,6.04304307 C25.04688,6.03081903 25.04688,6.01856099 25.0461353,6.00633695 C25.0694437,5.93756492 25.0694437,5.86302913 25.0461353,5.7942571 L25.0461353,5.7942571 L25.0461353,5.76978635 L25.0461353,5.74123714 L20.8861077,0.092572142 L20.8616369,0.072179849 C20.8496264,0.055858314 20.8359587,0.040823848 20.8208523,0.027316806 L20.7963816,0.027316806 L20.7474401,0.002846055 C20.7203828,-0.000948685 20.6929282,-0.000948685 20.6658709,0.002846055 L20.6373217,0.002846055 L4.23376164,0.002846055 L4.20521243,0.002846055 L4.15219247,0.002846055 C4.08541257,0.019147605 4.0263309,0.058055046 3.98497567,0.112964434 L0.0492632348,5.73715869 L0.0492632348,5.73715869 L0.0247924839,5.76978635 C0.0107487227,5.80208532 0.00246683673,5.83659318 0.000321733012,5.87174782 C0.000321733012,5.87174782 0.000321733012,5.87174782 0.000321733012,5.87174782 C-0.00195165939,5.92094652 0.00784984785,5.96995406 0.0288709424,6.01449386 L0.0288709424,6.01449386 L0.0492632348,6.04712153 L0.0492632348,6.07159228 L12.1296573,20.3217262 L12.1296573,20.3217262 C12.1500774,20.3426657 12.1734328,20.3605258 12.1989911,20.3747462 L12.2275403,20.3747462 C12.2623823,20.3897513 12.2997408,20.3980532 12.3376587,20.3992169 L12.3376587,20.3992169 C12.3769545,20.3985731 12.4157463,20.3902606 12.4518555,20.3747462 L12.4804047,20.3747462 C12.505963,20.3605258 12.5293184,20.3426657 12.5497385,20.3217262 L12.5497385,20.3217262 L25.0012723,6.12053378 L25.0012723,6.09198457 L25.025743,6.05527845 L25.0461353,6.04304307 Z M12.3702863,19.0288549 L8.64257526,6.21841679 L16.0979974,6.21841679 L12.3702863,19.0288549 Z M12.9738982,0.577908702 L20.0337098,0.577908702 L16.5058432,5.39456817 L12.9738982,0.577908702 Z M15.9022314,5.60256956 L8.83834127,5.60256956 L12.3702863,0.785910082 L15.9022314,5.60256956 Z M8.30814167,5.30484209 L4.85368733,0.577908702 L11.7870668,0.577908702 L8.30814167,5.30484209 Z M20.6373217,0.818537752 L24.1692667,5.63519722 L17.1094551,5.63519722 L20.6373217,0.818537752 Z M4.24599701,0.818537752 L7.77794206,5.63519722 L0.889425683,5.63519722 L4.24599701,0.818537752 Z M8.00633574,6.246966 L11.6769484,18.8657165 L0.962837936,6.21841679 L8.00633574,6.246966 Z M13.0513889,18.8901873 L16.7220015,6.246966 L24.0999329,6.246966 L13.0513889,18.8901873 Z" id="Shape" stroke="#FFFFFF" stroke-width="0.520000029" fill="#FFFFFF"></path>
        </g>
        <g id="Group-5" transform="translate(33.781424, 1281.800000)" fill-rule="nonzero">
            <g id="noun_loan_1324793" transform="translate(0.000000, -0.000000)">
                <rect id="Rectangle" fill="#D8232A" x="3" y="16" width="5" height="13"></rect>
                <path d="M34.474443,17.8117956 C33.7993185,17.8117956 32.2180907,18.5851722 26.8693809,21.2592399 L26.3493914,21.2592399 C26.397081,21.0730779 26.4304063,20.8823193 26.4304063,20.6846658 C26.4304063,20.0710207 26.1913835,19.4941484 25.7570055,19.0597704 C25.3226275,18.6253924 24.7457552,18.3863696 24.1321101,18.3863696 L17.9221138,18.3863696 L12.1763733,16.0880734 L8.0440367,16.0880734 C8.0440367,15.7818254 7.9245253,15.4933893 7.70791088,15.2762003 C7.49129647,15.0584367 7.20228572,14.9389253 6.8948886,14.9389253 L0,14.9389253 L0,16.0880734 L6.8948886,16.0880734 L6.8948886,28.7287025 L3.4474443,28.7287025 L3.4474443,16 L2.2982962,16 L2.2982962,28.7287025 L0,28.7287025 L0,29.8778506 L6.8948886,29.8778506 C7.20228572,29.8778506 7.49129647,29.7583392 7.70791088,29.5405756 C7.9245253,29.3233867 8.0440367,29.0349505 8.0440367,28.7287025 L8.0440367,26.4304063 L10.2492519,26.4304063 L20.5915848,29.8778506 L23.1490139,29.8778506 L23.2897846,29.7893662 C34.2118627,22.8910302 34.2118627,22.8910302 35.9281154,21.752799 C36.4808556,21.3879444 36.7727392,20.8196907 36.7727392,20.1100918 C36.7727392,18.7351361 35.8493987,17.8117956 34.474443,17.8117956 Z M35.2937856,20.794984 C33.5953447,21.9211492 33.5867261,21.9263203 22.8169101,28.7287025 L20.7777468,28.7287025 L10.4354139,25.2812582 L8.0440367,25.2812582 L8.0440367,17.2372215 L11.9557368,17.2372215 L17.7014773,19.5355177 L24.1321101,19.5355177 C24.4389327,19.5355177 24.7273688,19.6550291 24.9445578,19.8722181 C25.1617468,20.0894071 25.2812582,20.3778433 25.2812582,20.6846658 C25.2812582,20.9914884 25.1617468,21.2799245 24.9445578,21.4971135 C24.7273688,21.7143025 24.4389327,21.8338139 24.1321101,21.8338139 L17.8117956,21.8338139 C17.1981505,21.8338139 16.6207036,22.0728367 16.1869001,22.5072147 C15.7525222,22.9415927 15.5134994,23.518465 15.5134994,24.1321101 L16.6626475,24.1321101 C16.6626475,23.8252876 16.7821589,23.5368514 16.9993479,23.3196624 C17.2165368,23.1024734 17.504973,22.982962 17.8117956,22.982962 L24.1321101,22.982962 C24.693469,22.982962 25.2186296,22.7749662 25.6369195,22.408388 L27.1405798,22.408388 L27.261815,22.3480577 C31.1591507,20.3991025 33.9757127,18.9908215 34.474443,18.9609437 C34.8203366,18.9609437 35.6235911,19.0729856 35.6235911,20.1100918 C35.6235911,20.4330024 35.5218915,20.6444456 35.2937856,20.794984 Z" id="Shape" fill="#FFFFFF"></path>
                <rect id="Rectangle" fill="#FFFFFF" x="4.5965924" y="25.2812582" width="1.1491481" height="1.1491481"></rect>
                <rect id="Rectangle" fill="#FFFFFF" x="4.5965924" y="22.982962" width="1.1491481" height="1.1491481"></rect>
                <path d="M21.8338139,17.2372215 C24.36826,17.2372215 26.4304063,15.1750752 26.4304063,12.6406291 C26.4304063,10.106183 24.36826,8.0440367 21.8338139,8.0440367 C19.2993678,8.0440367 17.2372215,10.106183 17.2372215,12.6406291 C17.2372215,15.1750752 19.2993678,17.2372215 21.8338139,17.2372215 Z M21.8338139,9.1931848 C23.7350794,9.1931848 25.2812582,10.7393636 25.2812582,12.6406291 C25.2812582,14.5418946 23.7350794,16.0880734 21.8338139,16.0880734 C19.9325484,16.0880734 18.3863696,14.5418946 18.3863696,12.6406291 C18.3863696,10.7393636 19.9325484,9.1931848 21.8338139,9.1931848 Z" id="Shape" fill="#FFFFFF"></path>
                <path d="M21.8338139,14.9389253 C23.1013243,14.9389253 24.1321101,13.9081395 24.1321101,12.6406291 C24.1321101,11.3731188 23.1013243,10.3423329 21.8338139,10.3423329 C20.5663036,10.3423329 19.5355177,11.3731188 19.5355177,12.6406291 C19.5355177,13.9081395 20.5663036,14.9389253 21.8338139,14.9389253 Z M21.8338139,11.491481 C22.4675691,11.491481 22.982962,12.0068739 22.982962,12.6406291 C22.982962,13.2743843 22.4675691,13.7897772 21.8338139,13.7897772 C21.2000587,13.7897772 20.6846658,13.2743843 20.6846658,12.6406291 C20.6846658,12.0068739 21.2000587,11.491481 21.8338139,11.491481 Z" id="Shape" fill="#FFFFFF"></path>
                <rect id="Rectangle" fill="#FFFFFF" x="21.2592399" y="0" width="1.1491481" height="3.4474443"></rect>
                <rect id="Rectangle" fill="#FFFFFF" x="23.5575361" y="1.72372215" width="1.1491481" height="3.4474443"></rect>
                <rect id="Rectangle" fill="#FFFFFF" x="18.9609437" y="4.5965924" width="1.1491481" height="2.2982962"></rect>
                <rect id="Rectangle" fill="#FFFFFF" x="18.9609437" y="2.2982962" width="1.1491481" height="1.1491481"></rect>
            </g>
        </g>
        <g id="icon" transform="translate(27.881424, 1344.000000)" fill-rule="nonzero">
            <polygon id="Rectangle" fill="#EB860D" points="23.647128 -1.21871827e-15 39.7587207 22.9316064 8.6041439 23.1346313"></polygon>
            <polygon id="Rectangle" fill="#FFCE25" transform="translate(26.040722, 20.857928) scale(-1, 1) translate(-26.040722, -20.857928) " points="4.5534064 7.9769291 47.5280371 33.7389266 9.20892236 33.7389266"></polygon>
            <polygon id="Rectangle" fill="#FFCE25" points="0 7.9769291 42.9746307 33.7389266 4.65551596 33.7389266"></polygon>
            <line x1="8.6041439" y1="41.1382128" x2="38.7770158" y2="41.1382128" id="Line-4" stroke="#FFCE25" stroke-width="4.08639043" fill="#D8D8D8" stroke-linecap="square"></line>
        </g>
        <g id="Icon" transform="translate(27.881424, 1419.000000)" fill-rule="nonzero">
            <rect id="Rectangle" fill="#D8D8D8" opacity="0" x="0" y="0" width="48" height="48"></rect>
            <g id="Group-5" transform="translate(1.209059, 8.292683)">
                <path d="M39.3031375,20.567945 L31.7770047,14.2543559 C31.3170744,13.8780493 30.6480848,13.9198611 30.2717782,14.3379796 L23.2891995,21.3205583 L16.4738683,18.0174223 C16.0557498,17.808363 15.5540076,17.8919867 15.2195128,18.1846697 L8.15331043,24.6655062 L0.919860664,26.087109 C0.376306635,26.2125446 -3.64015021e-23,26.6724749 -3.64015021e-23,27.1742171 L-3.64015021e-23,38.529618 C-3.64015021e-23,39.1567957 0.50174218,39.6585379 1.12891991,39.6585379 L38.592336,39.6585379 C39.2195138,39.6585379 39.7212559,39.1567957 39.7212559,38.529618 L39.7212559,21.4459938 C39.7212559,21.1114991 39.5540085,20.8188161 39.3031375,20.567945 Z M9.78397251,26.2125446 L14.8432062,21.6132412 L14.8432062,37.44251 L9.78397251,37.44251 L9.78397251,26.2125446 Z M17.1428578,20.860628 L22.4111507,23.4111507 L22.4111507,37.44251 L17.1428578,37.44251 L17.1428578,20.860628 Z M24.6689905,23.1602796 L29.9372834,17.8919867 L29.9372834,37.44251 L24.6689905,37.44251 L24.6689905,23.1602796 Z M2.25783981,28.1358896 L7.5261327,27.0905934 L7.5261327,37.44251 L2.25783981,37.44251 L2.25783981,28.1358896 Z M37.4634161,37.44251 L32.1951232,37.44251 L32.1951232,17.5574919 L37.4634161,21.9895479 L37.4634161,37.44251 Z" id="Shape" stroke="#FFFFFF" stroke-width="0.1" fill="#000000"></path>
                <path d="M5.22648104,19.9024398 C5.47735213,19.9024398 5.72822322,19.8188161 5.93728247,19.6515687 L15.4703839,11.581882 L21.5331019,14.5923351 C21.9512204,14.8013943 22.4947744,14.7177706 22.8292692,14.3832758 L33.1149839,3.97212559 L33.1149839,7.81881564 C33.1149839,8.44599337 33.6167261,8.94773555 34.2439038,8.94773555 C34.8710815,8.94773555 35.3728237,8.44599337 35.3728237,7.81881564 L35.3728237,1.12891991 C35.3728237,0.50174218 34.8710815,-3.14785478e-22 34.2439038,-3.14785478e-22 L27.6376318,-3.14785478e-22 C27.010454,-3.14785478e-22 26.5087119,0.50174218 26.5087119,1.12891991 C26.5087119,1.75609763 27.010454,2.25783981 27.6376318,2.25783981 L31.6515692,2.25783981 L21.8675967,12.2090597 L15.8466905,9.19860664 C15.428572,8.9895474 14.9686417,9.07317109 14.5923351,9.36585403 L4.51567962,17.9372829 C4.05574929,18.3554014 3.97212559,19.0662028 4.39024408,19.5261332 C4.59930332,19.7770043 4.93379811,19.9024398 5.22648104,19.9024398 Z" id="Path" fill="#D8232A"></path>
            </g>
        </g>
        <g id="Group" transform="translate(27.881424, 1500.000000)" fill-rule="nonzero">
            <rect id="Rectangle" fill="#D8D8D8" opacity="0" x="0" y="0" width="48" height="48"></rect>
            <g id="Group-4" transform="translate(1.000000, 6.807453)" stroke="#303030">
                <path d="M7.20445989,24.983452 C7.14150695,24.6365385 6.79886202,24.4045138 6.43911993,24.4651962 L0.547413009,25.4589804 C0.18767572,25.5196893 -0.0529257637,25.8501198 0.00999975414,26.1970379 L2.27152202,38.6645128 C2.30150895,38.8312339 2.39906293,38.9795934 2.54265217,39.0768459 C2.68624142,39.1740984 2.86406057,39.2122481 3.03686198,39.1828749 L8.92812804,38.1890907 C9.28786533,38.1283818 9.52846681,37.7979513 9.4655413,37.4510332 L9.34430369,36.7831251 L10.74559,35.6858173 C11.2958005,35.2439381 12.0026816,35.0257951 12.7166931,35.0775363 L22.3237817,35.7547976 C22.3385506,35.7558605 22.3533195,35.7563919 22.3678681,35.7564982 C24.4946943,35.7633928 26.5682479,35.1152425 28.2864677,33.9064652 C28.3117104,33.8886336 28.3355796,33.8690609 28.3578877,33.847901 L39.8012851,23.0427562 C40.0513513,22.8067032 40.0674391,22.4236454 39.8379871,22.1688638 C38.538664,20.7224506 36.2900983,20.515844 34.7309079,21.6996063 L29.4283055,25.5233904 C28.3520975,24.2291834 26.6310094,23.6020536 24.9362317,23.8865693 L19.5636422,24.792773 C18.6987757,24.9376751 17.8111843,24.8930667 16.9666224,24.6622525 L16.3657247,24.4974012 C13.2619288,23.6377497 9.91802327,24.3252619 7.44770662,26.3309597 L7.20445989,24.983452 Z M3.4604221,37.8162356 L1.42682654,26.6054992 L6.0154496,25.8314104 L8.04893495,37.042253 L3.4604221,37.8162356 Z M16.0045468,25.7234227 L16.6054445,25.8883803 C17.6418909,26.1715228 18.7310983,26.2262649 19.7924506,26.0485549 L25.1650401,25.1422449 C26.759818,24.8757657 28.3283831,25.7300959 28.9151398,27.1847638 L20.7989432,28.5538477 C20.566209,28.5931115 20.3728751,28.7491288 20.2917684,28.9631295 C20.2106617,29.1771302 20.2541043,29.4166025 20.4057318,29.5913394 C20.5573592,29.7660763 20.7941357,29.8495311 21.0268699,29.8102673 L29.858148,28.3205476 C30.0309232,28.2913952 30.1846112,28.1972439 30.2853976,28.0588088 C30.3861839,27.9203738 30.4258114,27.7489967 30.3955612,27.5823838 C30.3359509,27.2546589 30.2391124,26.9342578 30.1067953,26.6269692 L35.5301944,22.7156045 C35.5348235,22.7122033 35.5394525,22.7089085 35.5439714,22.7049758 C36.363686,22.0795303 37.5093098,22.0389198 38.3744287,22.6046408 L27.4677832,32.9039655 C25.9926506,33.9322654 24.2180181,34.4842199 22.3978468,34.4808406 L12.8133525,33.8052799 C11.7609271,33.7285589 10.7187635,34.0491829 9.90684619,34.6994731 L9.08353261,35.3441043 L7.71927887,27.8225926 C9.8733052,25.7113034 13.0525702,24.9057993 16.0045468,25.7234227 L16.0045468,25.7234227 Z" id="Shape" stroke-width="0.5" fill="#000000"></path>
                <circle id="Oval" stroke-width="1.61490683" fill="#FFFFFF" cx="19.1304348" cy="10.4968944" r="10.4968944"></circle>
            </g>
            <path d="M23.5064063,13.6999171 C24.0208633,13.699917 24.4379132,13.2828672 24.4379132,12.7684102 C24.4379132,12.2539532 24.0208633,11.8369034 23.5064063,11.8369034 L16.7343515,11.8369034 C16.2198945,11.8369034 15.8028447,12.2539532 15.8028447,12.7684102 C15.8028447,13.2828673 16.2198945,13.6999171 16.7343515,13.6999171 L18.672041,13.6999171 C19.4067969,13.7176328 20.0735753,14.1341461 20.4117853,14.7866751 L16.7343515,14.7866751 C16.2198945,14.7866751 15.8028447,15.2037249 15.8028447,15.7181819 C15.8028447,16.2326389 16.2198945,16.6496888 16.7343515,16.6496888 L20.4117853,16.6496888 C20.0784611,17.2706933 19.4239223,17.5811956 18.672041,17.5811956 L16.7343515,17.5811956 C16.3498554,17.5915075 16.008994,17.8312723 15.8693345,18.189656 C15.729675,18.5480396 15.8184261,18.9552213 16.0945616,19.2229764 L20.9383972,23.8055244 C21.1773457,24.0455339 21.5278963,24.1366363 21.8534666,24.0433358 C22.1790368,23.9500353 22.4281263,23.6870907 22.5036839,23.3569513 C22.5792416,23.026812 22.4693154,22.681701 22.2167351,22.4560815 L19.0553561,19.5022732 C20.6603028,19.3548483 21.9981075,18.2119262 22.3943424,16.6496888 L23.5064063,16.6496888 C24.0208634,16.6496888 24.4379132,16.2326389 24.4379132,15.7181819 C24.4379132,15.2037249 24.0208634,14.7866751 23.5064063,14.7866751 L22.3943424,14.7866751 C22.3213583,14.3998641 22.1742187,14.0308291 21.9610365,13.6999171 L23.5064063,13.6999171 Z" id="Path" fill="#D8232A"></path>
        </g>
        <g id="Group" transform="translate(27.881384, 1580.000000)" fill-rule="nonzero">
            <rect id="Rectangle" fill="#D8D8D8" opacity="0" x="3.95505617e-05" y="0" width="48" height="48"></rect>
            <path d="M4.94382022,8.16266355 C2.28134831,8.16266355 -1.77635684e-15,10.4441663 -1.77635684e-15,13.1066382 L-1.77635684e-15,43.6684494 C-1.77635684e-15,45.8937978 1.81959551,47.7133933 4.04494382,47.7133933 L30.5617978,47.7133933 C31.0324504,47.7133933 31.4608301,47.2851236 31.4608301,46.8145169 L31.4608301,17.151582 C31.4669672,16.6425483 31.0942481,16.2433124 30.5617978,16.2527056 C28.9914607,16.2527056 27.4157304,14.6769753 27.4157304,13.1066382 C27.4157304,11.5362562 28.9914607,9.96057079 30.5617978,9.96057079 C31.0366751,9.96731236 31.4608301,9.53661573 31.4608301,9.06169438 C31.4608301,8.58672809 31.0366751,8.1560764 30.5617978,8.16266355 L4.94382022,8.16266355 Z M4.94382022,9.96057079 L26.7977528,9.96057079 C26.0684045,10.8249753 25.6179776,11.9279416 25.6179776,13.1066382 C25.6179776,14.2852899 26.0684045,15.3882562 26.7977528,16.2527056 L4.94382022,16.2527056 C3.37348315,16.2527056 1.79775281,14.6769753 1.79775281,13.1066382 C1.79775281,11.5362562 3.37348315,9.96057079 4.94382022,9.96057079 Z M1.79775281,16.8706831 C2.6621573,17.5999865 3.76512359,18.0504584 4.94382022,18.0504584 L29.6629214,18.0504584 L29.6629214,45.9156404 L4.04494382,45.9156404 C2.78444944,45.9156404 1.79775281,44.9288989 1.79775281,43.6684494 L1.79775281,16.8706831 Z" id="Shape" fill="#000000"></path>
            <path d="M7.19101124,23.8931551 C6.69460674,23.8931551 6.29213483,24.295582 6.29213483,24.7920315 C6.29213483,25.2884809 6.69460674,25.6909079 7.19101124,25.6909079 L24.269663,25.6909079 C24.7661124,25.6909079 25.1685394,25.2884809 25.1685394,24.7920315 C25.1685394,24.295582 24.7661124,23.8931551 24.269663,23.8931551 L7.19101124,23.8931551 Z" id="Path" fill="#D8232A"></path>
            <path d="M7.19101124,31.0841798 C6.69460674,31.0841798 6.29213483,31.4866067 6.29213483,31.9830562 C6.29213483,32.4795056 6.69460674,32.8819326 7.19101124,32.8819326 L24.269663,32.8819326 C24.7661124,32.8819326 25.1685394,32.4795056 25.1685394,31.9830562 C25.1685394,31.4866067 24.7661124,31.0841798 24.269663,31.0841798 L7.19101124,31.0841798 Z" id="Path" fill="#D8232A"></path>
            <path d="M7.19101124,38.275191 C6.69460674,38.275191 6.29213483,38.677618 6.29213483,39.1740674 C6.29213483,39.6705169 6.69460674,40.0729438 7.19101124,40.0729438 L24.269663,40.0729438 C24.7661124,40.0729438 25.1685394,39.6705169 25.1685394,39.1740674 C25.1685394,38.677618 24.7661124,38.275191 24.269663,38.275191 L7.19101124,38.275191 Z" id="Path" fill="#D8232A"></path>
        </g>
        <g id="Group-2" transform="translate(27.881424, 1660.000000)">
            <rect id="Rectangle" fill="#D8D8D8" fill-rule="nonzero" opacity="0" x="0" y="0" width="48" height="48"></rect>
            <g id="Group-3" transform="translate(1.000000, 9.000000)">
                <rect id="Rectangle" stroke="#303030" stroke-width="2" fill="#FFFFFF" fill-rule="nonzero" x="0" y="0" width="28" height="38" rx="4"></rect>
                <rect id="Rectangle" fill="#D8232A" fill-rule="nonzero" x="4" y="5" width="20" height="5" rx="1"></rect>
                <rect id="Rectangle-Copy" stroke="#303030" stroke-width="1.5" x="4.75" y="14.75" width="3.5" height="3.5" rx="1"></rect>
                <rect id="Rectangle-Copy-2" stroke="#303030" stroke-width="1.5" x="11.75" y="14.75" width="3.5" height="3.5" rx="1"></rect>
                <rect id="Rectangle-Copy-2" stroke="#303030" stroke-width="1.5" x="18.75" y="14.75" width="3.5" height="3.5" rx="1"></rect>
                <rect id="Rectangle-Copy" stroke="#303030" stroke-width="1.5" x="4.75" y="21.75" width="3.5" height="3.5" rx="1"></rect>
                <rect id="Rectangle-Copy-2" stroke="#303030" stroke-width="1.5" x="11.75" y="21.75" width="3.5" height="3.5" rx="1"></rect>
                <rect id="Rectangle-Copy" stroke="#303030" stroke-width="1.5" x="4.75" y="28.75" width="3.5" height="3.5" rx="1"></rect>
                <rect id="Rectangle-Copy-2" stroke="#303030" stroke-width="1.5" x="11.75" y="28.75" width="3.5" height="3.5" rx="1"></rect>
                <rect id="Rectangle-Copy-2" stroke="#303030" stroke-width="1.5" x="18.75" y="21.75" width="3.5" height="10.5" rx="1"></rect>
            </g>
        </g>
        <g id="Play" transform="translate(35.881424, 1740.000000)" fill-rule="nonzero">
            <circle id="Oval" stroke="#E8E8E8" stroke-width="0.666666667" fill="#FFFFFF" cx="16" cy="16" r="16"></circle>
            <path d="M12,19.9519602 L12,11.0578735 C12,10.4108843 12.5244883,9.88639603 13.1714774,9.88639603 C13.3819508,9.88639603 13.5885369,9.94310002 13.7695181,10.0505469 L21.2952838,14.5185262 C21.8516149,14.8488149 22.0348584,15.5675623 21.7045697,16.1238934 C21.6036883,16.2938157 21.4614616,16.4354571 21.2911247,16.5356369 L13.765359,20.9617444 C13.2076706,21.2897361 12.489685,21.1035301 12.1616933,20.5458417 C12.0558246,20.365832 12,20.1607942 12,19.9519602 Z" id="Path" fill="#D8232A"></path>
        </g>
        <g id="Group-16" transform="translate(45.000000, 1804.500000)" stroke="#F5A623">
            <circle id="Oval" cx="6" cy="6" r="6"></circle>
            <path d="M8.3679845,4.30016004 C8.51879818,4.16067785 8.75612613,4.16774244 8.89807132,4.31593924 C9.04001651,4.46413603 9.03282717,4.69734593 8.88201349,4.83682812 L5.02937054,8.4 L3.10799301,6.48545391 C2.96257085,6.34054879 2.96422598,6.10723758 3.11168986,5.96433874 C3.25915374,5.8214399 3.49658479,5.82306632 3.64200696,5.96797144 L5.04890025,7.36986253 C7.26162308,5.3233942 8.3679845,4.30016004 8.3679845,4.30016004 Z" id="Path-4-Copy-8" stroke-width="0.4" fill="#F5A623" fill-rule="nonzero"></path>
        </g>
        <g id="right-arrrow" transform="translate(27.000000, 1848.500000)">
            <g id="Oval-2">
                <use fill="black" fill-opacity="1" filter="url(#filter-2)" xlink:href="#path-1"></use>
                <circle stroke="#D7D7D7" stroke-width="1" stroke-linejoin="square" fill="#FFFFFF" fill-rule="evenodd" cx="24" cy="24" r="23.5"></circle>
            </g>
            <g id="Group-16" transform="translate(14.000000, 15.000000)" fill="#303030">
                <path d="M12.0028103,0 L21,9.26234692 L11.5411109,19 L10.1569279,17.5750236 L17.266,10.255 L0,10.2557079 L0,8.24048686 L17.238,8.24 L10.6186272,1.42497645 L12.0028103,0 Z" id="Combined-Shape"></path>
            </g>
        </g>
        <ellipse id="Image-active" stroke="#FFFFFF" stroke-width="2.8" fill="#FFFFFF" cx="50.5976676" cy="1923.1" rx="5.59766764" ry="5.6"></ellipse>
        <ellipse id="Image-inactive" stroke="#FFFFFF" stroke-width="2.8" cx="50.5976676" cy="1956.1" rx="5.59766764" ry="5.6"></ellipse>
        <path d="M56.9315376,1988.99257 L47.5503018,1983.71966 C47.0108896,1983.41647 46.3733142,1983.42779 45.8445931,1983.74961 C45.315548,1984.07176 45,1984.64085 45,1985.27251 L45,1995.72783 C45,1996.35649 45.3136042,1996.92458 45.8390856,1997.24707 C46.1134893,1997.41547 46.4176982,1997.5 46.7225553,1997.5 C47.0018184,1997.5 47.2817296,1997.42911 47.5392868,1997.28667 L56.9208466,1992.10461 C57.4777531,1991.79677 57.8253744,1991.20205 57.8279773,1990.55209 C57.8302339,1989.90212 57.4868243,1989.30474 56.9315376,1988.99257 L56.9315376,1988.99257 Z M47.4884233,1994.41259 L47.4884233,1986.5984 L54.4998093,1990.53944 L47.4884233,1994.41259 Z" id="Play-Inactive" fill="#FFFFFF" fill-rule="nonzero"></path>
        <path d="M56.9315376,2034.99257 L47.5503018,2029.71966 C47.0108896,2029.41647 46.3733142,2029.42779 45.8445931,2029.74961 C45.315548,2030.07176 45,2030.64085 45,2031.27251 L45,2041.72783 C45,2042.35649 45.3136042,2042.92458 45.8390856,2043.24707 C46.1134893,2043.41547 46.4176982,2043.5 46.7225553,2043.5 C47.0018184,2043.5 47.2817296,2043.42911 47.5392868,2043.28667 L56.9208466,2038.10461 C57.4777531,2037.79677 57.8253744,2037.20205 57.8279773,2036.55209 C57.8302339,2035.90212 57.4868243,2035.30474 56.9315376,2034.99257 L56.9315376,2034.99257 Z" id="Play-active" fill="#FFFFFF" fill-rule="nonzero"></path>
    </g>
</svg>